<?xml version="1.0" encoding="UTF-8"?>
<svg id="Layer_2" data-name="Layer 2" xmlns="http://www.w3.org/2000/svg" viewBox="0 0 288 288">
  <defs>
    <style>
      .cls-1 {
        letter-spacing: -.02em;
      }

      .cls-1, .cls-2, .cls-3, .cls-4, .cls-5, .cls-6 {
        fill: #fdb515;
      }

      .cls-2 {
        letter-spacing: 0em;
      }

      .cls-7 {
        font-family: GoogleSansDisplay-Regular, 'Google Sans Display';
        font-size: 16.49px;
      }

      .cls-8 {
        letter-spacing: -.01em;
      }

      .cls-8, .cls-9, .cls-10 {
        fill: #ef3a39;
      }

      .cls-3 {
        letter-spacing: 0em;
      }

      .cls-11 {
        fill: #00a250;
      }

      .cls-12 {
        fill: #fff;
      }

      .cls-13 {
        fill: #231f20;
      }

      .cls-14 {
        fill: #277bbf;
      }

      .cls-15 {
        fill: #557ebf;
      }

      .cls-5 {
        letter-spacing: -.01em;
      }

      .cls-10, .cls-6 {
        letter-spacing: -.02em;
      }
    </style>
  </defs>
  <g>
    <path class="cls-12" d="M54.35,152.49l-3.96,2.15-1.28-2.79c-1.32,1.62-3.28,2.79-5.81,2.79-4.83,0-7.36-4-7.36-10.19,0-6.72,2.98-10.35,7.74-10.35,2.23,0,3.96,.83,5.1,2.38v-9.89h4.08v22.88l1.51,3.02Zm-5.59-2.72v-10.53c-1.06-.87-2.38-1.4-3.78-1.4-3.02,0-4.8,2.3-4.8,6.65s1.66,6.46,4.72,6.46c1.36,0,2.76-.45,3.85-1.17Z"/>
    <path class="cls-12" d="M74.59,144.83h-13.37c.26,3.44,2.95,5.74,7.17,5.74,2.15,0,4.49-.45,6.08-1.28l-1.28,4.19c-1.32,.72-3.55,1.17-6.12,1.17-6.08,0-10.08-4.12-10.08-10.38s3.81-10.16,9.89-10.16c5.02,0,8.19,2.87,8.19,7.51,0,1.06-.19,2.3-.49,3.21Zm-13.14-2.83h9.63c-.19-2.95-1.59-4.34-4.19-4.34-2.83,0-4.79,1.62-5.44,4.34Z"/>
    <path class="cls-12" d="M84.52,154.15l-7.7-19.56h4.49l5.02,13.67,.57,1.7h.15l.57-1.7,4.98-13.67h4.42l-7.66,19.56h-4.83Z"/>
    <path class="cls-12" d="M110.38,134.63h8.83l-.57,3.13h-8.84l-3.1,17.59c-.87,4.91-4.15,6.76-8.76,6.76-2.11,0-3.1-.3-4.15-.53l-.08-3.17c1.06,.19,2.3,.3,4.04,.3,2.76,0,4.57-1.1,4.98-3.4l3.1-17.56h-6.15l.57-3.13h6.15l.3-1.81c.87-4.87,4.12-6.72,8.68-6.72,2.15,0,3.25,.3,4.19,.53l.08,3.25c-1.06-.26-2.3-.38-4.04-.38-2.72,0-4.53,1.09-4.95,3.4l-.3,1.74Z"/>
    <path class="cls-12" d="M137.45,144.83h-13.37c.26,3.44,2.95,5.74,7.17,5.74,2.15,0,4.49-.45,6.08-1.28l-1.28,4.19c-1.32,.72-3.55,1.17-6.12,1.17-6.08,0-10.08-4.12-10.08-10.38s3.81-10.16,9.89-10.16c5.02,0,8.19,2.87,8.19,7.51,0,1.06-.19,2.3-.49,3.21Zm-13.14-2.83h9.63c-.19-2.95-1.59-4.34-4.19-4.34-2.83,0-4.79,1.62-5.44,4.34Z"/>
    <path class="cls-12" d="M141.83,152.98l-.26-4.38c1.74,1.21,4.91,2.27,8.23,2.27,2.53,0,4.34-.79,4.34-2.57,0-3.7-12.16-.26-12.16-7.82,0-3.51,2.64-6.49,8.95-6.49,3.85,0,6.8,.94,6.8,3.28,0,.72-.3,1.32-.6,1.89-1.66-.79-4.27-1.36-6.46-1.36-3.02,0-4.61,1.13-4.61,2.38,0,3.28,12.31,.42,12.31,7.78,0,4.12-3.62,6.68-9.02,6.68-3.66,0-6.42-1.17-7.51-1.66Z"/>
    <path class="cls-12" d="M179.4,150l-.83,3.81c-.98,.42-2.95,.83-4.76,.83-4.87,0-6.95-2.53-6.95-6.12v-10.5h-5.55v-3.44h5.55v-5.36h4.08v5.36h7.89v3.44h-7.89v9.25c0,2.53,1.32,3.66,3.62,3.66,1.32,0,3.74-.3,4.83-.94Z"/>
  </g>
  <g>
    <path class="cls-12" d="M200.76,152.24v1.91h-13.35v-2c5.91-4.98,9.85-7.85,9.85-11.8,0-2.82-1.89-4.08-4.48-4.08-2,0-3.74,.87-4.65,1.6-.31-.2-.68-.59-.68-1.18,0-1.46,2.53-2.56,5.46-2.56,4.05,0,6.64,2.14,6.64,6.02,0,4.84-4.03,7.88-9.4,12.08h10.59Z"/>
    <path class="cls-12" d="M204.08,144.33c0-6.7,2.76-10.19,7.29-10.19s7.29,3.49,7.29,10.19-2.82,10.19-7.29,10.19-7.29-3.49-7.29-10.19Zm12.22,0c0-5.38-1.75-8.05-4.93-8.05s-4.96,2.67-4.96,8.05,1.75,8.08,4.96,8.08,4.93-2.7,4.93-8.08Zm-6.53,1.49v-3.07h3.1v3.07h-3.1Z"/>
    <path class="cls-12" d="M235.39,152.24v1.91h-13.35v-2c5.91-4.98,9.85-7.85,9.85-11.8,0-2.82-1.89-4.08-4.48-4.08-2,0-3.74,.87-4.65,1.6-.31-.2-.68-.59-.68-1.18,0-1.46,2.53-2.56,5.46-2.56,4.05,0,6.64,2.14,6.64,6.02,0,4.84-4.03,7.88-9.4,12.08h10.59Z"/>
    <path class="cls-12" d="M252.7,152.24v1.91h-13.34v-2c5.91-4.98,9.85-7.85,9.85-11.8,0-2.82-1.89-4.08-4.48-4.08-2,0-3.74,.87-4.65,1.6-.31-.2-.68-.59-.68-1.18,0-1.46,2.53-2.56,5.46-2.56,4.05,0,6.64,2.14,6.64,6.02,0,4.84-4.03,7.88-9.4,12.08h10.59Z"/>
  </g>
  <g>
    <path class="cls-14" d="M54.35,152.49l-3.96,2.15-1.28-2.79c-1.32,1.62-3.28,2.79-5.81,2.79-4.83,0-7.36-4-7.36-10.19,0-6.72,2.98-10.34,7.74-10.34,2.23,0,3.96,.83,5.09,2.38v-9.89h4.08v22.87l1.51,3.02Zm-5.59-2.72v-10.53c-1.06-.87-2.38-1.4-3.77-1.4-3.02,0-4.79,2.3-4.79,6.64s1.66,6.45,4.72,6.45c1.36,0,2.75-.45,3.85-1.17Z"/>
    <path class="cls-14" d="M74.57,144.83h-13.36c.26,3.43,2.94,5.74,7.17,5.74,2.15,0,4.49-.45,6.08-1.28l-1.28,4.19c-1.32,.72-3.55,1.17-6.11,1.17-6.08,0-10.08-4.11-10.08-10.38s3.81-10.15,9.89-10.15c5.02,0,8.19,2.87,8.19,7.51,0,1.06-.19,2.3-.49,3.21Zm-13.13-2.83h9.62c-.19-2.94-1.58-4.34-4.19-4.34-2.83,0-4.79,1.62-5.43,4.34Z"/>
    <path class="cls-14" d="M84.5,154.15l-7.7-19.55h4.49l5.02,13.66,.57,1.7h.15l.57-1.7,4.98-13.66h4.41l-7.66,19.55h-4.83Z"/>
    <path class="cls-14" d="M110.35,134.64h8.83l-.57,3.13h-8.83l-3.09,17.58c-.87,4.91-4.15,6.75-8.75,6.75-2.11,0-3.09-.3-4.15-.53l-.08-3.17c1.06,.19,2.3,.3,4.04,.3,2.75,0,4.57-1.09,4.98-3.4l3.09-17.55h-6.15l.57-3.13h6.15l.3-1.81c.87-4.87,4.11-6.72,8.68-6.72,2.15,0,3.25,.3,4.19,.53l.08,3.25c-1.06-.26-2.3-.38-4.04-.38-2.72,0-4.53,1.09-4.94,3.4l-.3,1.74Z"/>
    <path class="cls-14" d="M137.4,144.83h-13.36c.26,3.43,2.94,5.74,7.17,5.74,2.15,0,4.49-.45,6.08-1.28l-1.28,4.19c-1.32,.72-3.55,1.17-6.11,1.17-6.08,0-10.08-4.11-10.08-10.38s3.81-10.15,9.89-10.15c5.02,0,8.19,2.87,8.19,7.51,0,1.06-.19,2.3-.49,3.21Zm-13.13-2.83h9.62c-.19-2.94-1.58-4.34-4.19-4.34-2.83,0-4.79,1.62-5.43,4.34Z"/>
    <path class="cls-14" d="M141.78,152.98l-.26-4.38c1.74,1.21,4.91,2.26,8.23,2.26,2.53,0,4.34-.79,4.34-2.57,0-3.7-12.15-.26-12.15-7.81,0-3.51,2.64-6.49,8.94-6.49,3.85,0,6.79,.94,6.79,3.28,0,.72-.3,1.32-.6,1.89-1.66-.79-4.26-1.36-6.45-1.36-3.02,0-4.6,1.13-4.6,2.38,0,3.28,12.3,.41,12.3,7.77,0,4.11-3.62,6.68-9.02,6.68-3.66,0-6.42-1.17-7.51-1.66Z"/>
    <path class="cls-14" d="M179.32,150l-.83,3.81c-.98,.42-2.94,.83-4.75,.83-4.87,0-6.94-2.53-6.94-6.11v-10.49h-5.55v-3.43h5.55v-5.36h4.08v5.36h7.89v3.43h-7.89v9.25c0,2.53,1.32,3.66,3.62,3.66,1.32,0,3.74-.3,4.83-.94Z"/>
  </g>
  <g>
    <path class="cls-11" d="M200.67,152.24v1.91h-13.34v-2c5.91-4.98,9.85-7.85,9.85-11.79,0-2.81-1.88-4.08-4.47-4.08-2,0-3.74,.87-4.64,1.6-.31-.2-.68-.59-.68-1.18,0-1.46,2.53-2.56,5.46-2.56,4.05,0,6.64,2.14,6.64,6.02,0,4.84-4.02,7.88-9.4,12.07h10.58Z"/>
    <path class="cls-11" d="M203.99,144.33c0-6.7,2.76-10.19,7.29-10.19s7.29,3.49,7.29,10.19-2.81,10.19-7.29,10.19-7.29-3.49-7.29-10.19Zm12.21,0c0-5.37-1.74-8.05-4.92-8.05s-4.95,2.67-4.95,8.05,1.74,8.08,4.95,8.08,4.92-2.7,4.92-8.08Zm-6.53,1.49v-3.07h3.1v3.07h-3.1Z"/>
    <path class="cls-11" d="M235.28,152.24v1.91h-13.34v-2c5.91-4.98,9.85-7.85,9.85-11.79,0-2.81-1.88-4.08-4.47-4.08-2,0-3.74,.87-4.64,1.6-.31-.2-.68-.59-.68-1.18,0-1.46,2.53-2.56,5.46-2.56,4.05,0,6.64,2.14,6.64,6.02,0,4.84-4.02,7.88-9.4,12.07h10.58Z"/>
    <path class="cls-11" d="M252.59,152.24v1.91h-13.34v-2c5.91-4.98,9.85-7.85,9.85-11.79,0-2.81-1.88-4.08-4.47-4.08-2,0-3.74,.87-4.64,1.6-.31-.2-.68-.59-.68-1.18,0-1.46,2.53-2.56,5.46-2.56,4.05,0,6.64,2.14,6.64,6.02,0,4.84-4.02,7.88-9.4,12.07h10.58Z"/>
  </g>
  <text class="cls-7" transform="translate(117.07 170.89)"><tspan class="cls-9" x="0" y="0">S</tspan><tspan class="cls-10" x="9.22" y="0">e</tspan><tspan class="cls-8" x="18.04" y="0">tta</tspan><tspan class="cls-9" x="37.42" y="0">t</tspan><tspan class="cls-15" x="43.32" y="0"> </tspan><tspan class="cls-13" x="47.15" y="0">x</tspan><tspan class="cls-15" x="55" y="0"> </tspan><tspan class="cls-5" x="58.83" y="0">M</tspan><tspan class="cls-4" x="72.85" y="0">ar</tspan><tspan class="cls-1" x="87.49" y="0">r</tspan><tspan class="cls-4" x="93.2" y="0">a</tspan><tspan class="cls-6" x="101.81" y="0">k</tspan><tspan class="cls-3" x="109.71" y="0">e</tspan><tspan class="cls-2" x="118.86" y="0">sh</tspan></text>
</svg>