<svg id="Layer_1" data-name="Layer 1" xmlns="http://www.w3.org/2000/svg" viewBox="0 0 585.43 531.61"><defs><style>.cls-1{fill:#f14f5e;}.cls-2{fill:#fff;}</style></defs><path class="cls-1" d="M402.09,466.22c2-9.64,4-19.31,6.11-28.93,15-67.71,39.1-132.71,59.51-198.81,11.52-37.3,23.89-74.33,35.48-111.61,1.94-6.25,4.92-8.09,11.2-8,24.15.33,48.3.12,72.45.15,2.43,0,4.86.23,8.42.4-2.89,8.8-5.45,16.9-8.18,24.93Q520,341.35,453,538.4c-2.18,6.44-4.83,9.22-12.14,9.08q-39.54-.75-79.11,0c-7.44.13-10.55-2.39-12.88-9.31q-56.25-166.45-113-332.73c-5.33-15.63-2.28-12.77-18.3-12.85-35.26-.16-70.52.26-105.76-.25-8.73-.13-10.68,2.74-10.56,10.88.43,30,.16,60,.18,89.94,0,10.66,0,10.68,11.16,10.68,41.92,0,83.84.23,125.75-.18,8-.07,9.83,2.52,9.63,10-.48,18.31-.43,36.64,0,54.95.16,6.9-1.94,9-8.91,9-42.47-.28-85,.06-127.42-.3-7.91-.06-10.44,2-10.38,10.18.34,50,0,99.93.35,149.9.06,8.12-2.33,10.33-10.3,10.15-23-.51-46.08-.36-69.12-.06-6.16.08-8.14-1.8-8.14-8q.23-206.11,0-412.23c0-6.78,2.28-8.35,8.68-8.34q132.82.28,265.65,0c5.39,0,8.52,1,10.32,6.83,29.3,94.66,59,189.19,88.14,283.92,5.65,18.41,9,37.53,13.42,56.32Z" transform="translate(-13.29 -118.84)"/><path class="cls-1" d="M302.83,546.86c-3.69.19-6.13.42-8.58.42-45.76,0-91.52-.12-137.28.17-7.08,0-9.65-1.56-9.56-9.16.4-33.55.34-67.12,0-100.67-.07-6.83,1.81-9.07,8.84-9,33.56.34,67.12.24,100.68.06,4.82,0,7.63,1.17,9.23,6.05,11.7,35.76,23.61,71.45,35.44,107.17C302.05,543.13,302.25,544.43,302.83,546.86Z" transform="translate(-13.29 -118.84)"/><path class="cls-1" d="M340.44,119.45H459.66L400.07,314.61C379.89,248.56,360.31,184.5,340.44,119.45Z" transform="translate(-13.29 -118.84)"/><path class="cls-1" d="M544.44,547.24c-29.88-1.73-54.28-21.34-54.84-54.55-.51-30,20.79-54.31,53.86-55.09,29-.68,54.78,19.87,55.25,54.54C599.11,522,577.43,544.93,544.44,547.24Z" transform="translate(-13.29 -118.84)"/><path class="cls-1" d="M3.71,443h577a3.69,3.69,0,0,1,3.69,3.69v80.64a4.28,4.28,0,0,1-4.28,4.28H3.32A3.32,3.32,0,0,1,0,528.29V446.72A3.71,3.71,0,0,1,3.71,443Z"/><path class="cls-2" d="M49.3,615.43v2.69H30.41a16.33,16.33,0,0,1-7.81-1.55,8.49,8.49,0,0,1-4-4.69,24.48,24.48,0,0,1-1.17-8.34q0-7.92,2.71-11.54t9.3-3.62c1,0,2.89.06,5.65.18s5.19.25,7.29.41v26.46ZM21.49,610.3a7.06,7.06,0,0,0,3.35,3.88,14,14,0,0,0,6.5,1.25h8.05v-23.9q-6.82-.4-8.74-.41c-3.7,0-6.31,1-7.85,2.92s-2.3,5.05-2.3,9.33A20,20,0,0,0,21.49,610.3Zm5-30.6h3.73v3.85H26.51Zm6.58,0h3.73v3.85H33.09Z" transform="translate(-13.29 -118.84)"/><path class="cls-2" d="M69.7,615.43v2.69H49.3v-2.69H58V589h3v26.46Zm-15.39,7.35H58v3.85H54.31Zm6.59,0h3.73v3.85H60.9Z" transform="translate(-13.29 -118.84)"/><path class="cls-2" d="M87.89,615.43v2.69H69.7v-2.69h7.17V575.79h3v39.64Z" transform="translate(-13.29 -118.84)"/><path class="cls-2" d="M108.29,615.43v2.69H87.89v-2.69h8.69V589h3v26.46Zm-11.77,7.35h3.21v3.79H96.52Z" transform="translate(-13.29 -118.84)"/><path class="cls-2" d="M142.4,615.43v2.69H108.29v-2.69h9.27a11.35,11.35,0,0,1-1.54-4.31,42.91,42.91,0,0,1-.38-6.3,33.35,33.35,0,0,1,1.08-9.7,7.52,7.52,0,0,1,3.85-4.72c1.84-.92,4.53-1.37,8.07-1.37a71,71,0,0,1,7.87.4l1,.12v25.88Zm-21.4,0h13.47V591.88q-4-.35-6.3-.35a11.25,11.25,0,0,0-6,1.31,6.82,6.82,0,0,0-2.86,4,26.44,26.44,0,0,0-.79,7.2Q118.55,613,121,615.43Zm-.41-35.73h3.74v3.85h-3.74Zm6.59,0h3.73v3.85h-3.73Z" transform="translate(-13.29 -118.84)"/><path class="cls-2" d="M162.8,615.43v2.69H142.4v-2.69h8.68V589h3v26.46ZM147.53,579.7h3.73v3.85h-3.73Zm6.58,0h3.74v3.85h-3.74Z" transform="translate(-13.29 -118.84)"/><path class="cls-2" d="M211.36,615.43v2.69h-16a8.76,8.76,0,0,1-3.12-.59,13.32,13.32,0,0,1-3.35-2,6.33,6.33,0,0,1-5.37,2.57H162.8v-2.69h9.68V591.88h3v23.55h7.11a4.2,4.2,0,0,0,4.11-2.5,14.73,14.73,0,0,0,1.2-6.36V591.88h3v14.63a21.24,21.24,0,0,1-.88,6.59,10.29,10.29,0,0,0,2.57,1.63,7.25,7.25,0,0,0,3.09.7h6.88V600.74a88.09,88.09,0,0,0-1.05-10.37l-.18-1.23,2.28-.17c.54,2.14,1,4.42,1.39,6.85a39.76,39.76,0,0,1,.59,6.09v13.52Z" transform="translate(-13.29 -118.84)"/><path class="cls-2" d="M250.71,615.43v2.69h-1.28a7.5,7.5,0,0,1-2.54-.53,12.51,12.51,0,0,1-2.77-1.46v2H211.36v-2.69h9.85A73.51,73.51,0,0,1,220.4,604q0-4.32.37-8.19a46.91,46.91,0,0,1,.91-6,20.67,20.67,0,0,1,3.82-1,29.41,29.41,0,0,1,5.1-.44q6.47,0,10,3.39t3.52,11.77v9.91a11.59,11.59,0,0,0,2.33,1.43,7.21,7.21,0,0,0,3,.55Zm-26.9-5c.17,2.1.36,3.77.55,5H241V603.54q0-6.82-2.88-9.65t-8.25-2.82a23,23,0,0,0-5.42.64,75.49,75.49,0,0,0-.94,12.3Q223.54,607.26,223.81,610.42Z" transform="translate(-13.29 -118.84)"/><path class="cls-2" d="M260.91,575.79v42.33h-10.2v-2.69h7.17V575.79Z" transform="translate(-13.29 -118.84)"/><path class="cls-2" d="M271.93,575.79H275v42.33h-3.09Z" transform="translate(-13.29 -118.84)"/><path class="cls-2" d="M327.25,615.43v2.69H308.36a16.33,16.33,0,0,1-7.81-1.55,8.49,8.49,0,0,1-4-4.69,24.48,24.48,0,0,1-1.17-8.34q0-7.92,2.71-11.54t9.3-3.62c1,0,2.89.06,5.65.18s5.19.25,7.29.41v26.46Zm-27.81-5.13a7.06,7.06,0,0,0,3.35,3.88,14,14,0,0,0,6.5,1.25h8v-23.9q-6.82-.4-8.74-.41c-3.7,0-6.31,1-7.85,2.92s-2.3,5.05-2.3,9.33A20,20,0,0,0,299.44,610.3Zm5-30.6h3.73v3.85h-3.73Zm6.58,0h3.74v3.85H311Z" transform="translate(-13.29 -118.84)"/><path class="cls-2" d="M339,589v29.15H327.25v-2.69h8.69V589Zm-6.76,33.81h3.73v3.85h-3.73Zm6.58,0h3.73v3.85h-3.73Z" transform="translate(-13.29 -118.84)"/><path class="cls-2" d="M363.28,588.18c2.06.21,3.75.44,5.07.67v26.29a42.38,42.38,0,0,1-1.05,10.7q-1.05,3.81-3.06,5.28a8.8,8.8,0,0,1-5.28,1.45,70.28,70.28,0,0,1-8.22-.76v-2.62a61,61,0,0,0,8.11.7,7.07,7.07,0,0,0,3.47-.76,5.57,5.57,0,0,0,2.21-3.32,26.32,26.32,0,0,0,.85-7.69h-9.33q-4.14,0-6.3-2.13a10.32,10.32,0,0,1-2.83-5.42,41.14,41.14,0,0,1-.67-8,28.84,28.84,0,0,1,.91-7.78,9.17,9.17,0,0,1,3.55-5.08q2.66-1.89,7.61-1.89C359.57,587.86,361.22,588,363.28,588.18Zm-12.36,24c1.09,2.2,3.28,3.29,6.59,3.29h7.81v-.35l-.06-1.1.06.11V591q-4.44-.46-6.07-.47a10.51,10.51,0,0,0-6.32,1.63,7.9,7.9,0,0,0-2.94,4.41,25.24,25.24,0,0,0-.7,7A19.42,19.42,0,0,0,350.92,612.14Zm12.47-30.69-11.48,2.21-.47-1.45,2.8-.76a5.14,5.14,0,0,1-.41-7.44,4.83,4.83,0,0,1,3.68-1.48A6.09,6.09,0,0,1,360,573a8.1,8.1,0,0,1,1.66.91l-.46,1.69a4,4,0,0,0-1.11-.59,4.75,4.75,0,0,0-1.69-.29,3.48,3.48,0,0,0-2.62,1,3.36,3.36,0,0,0-1,2.42,3.4,3.4,0,0,0,1.34,2.74l6.76-1.8Z" transform="translate(-13.29 -118.84)"/><path class="cls-2" d="M394.58,618.12h-6.24v1q0,6.75-2.36,10.11t-7.26,3.35c-.54,0-2-.1-4.31-.29v-2.62c2.25.15,3.73.23,4.43.23a5.3,5.3,0,0,0,4.81-2.59,13.58,13.58,0,0,0,1.6-7.15V589h3.09v26.4h6.24Z" transform="translate(-13.29 -118.84)"/><path class="cls-2" d="M404.78,575.79v42.33h-10.2v-2.69h7.17V575.79Z" transform="translate(-13.29 -118.84)"/><path class="cls-2" d="M415.8,575.79h3.09v42.33H415.8Z" transform="translate(-13.29 -118.84)"/><path class="cls-2" d="M471.12,615.43v2.69H452.23a16.33,16.33,0,0,1-7.81-1.55,8.53,8.53,0,0,1-4-4.69,24.48,24.48,0,0,1-1.17-8.34q0-7.92,2.71-11.54t9.3-3.62c1,0,2.9.06,5.66.18s5.18.25,7.28.41v26.46Zm-27.81-5.13a7,7,0,0,0,3.36,3.88,13.93,13.93,0,0,0,6.5,1.25h8v-23.9q-6.82-.4-8.74-.41c-3.7,0-6.31,1-7.84,2.92s-2.31,5.05-2.31,9.33A20,20,0,0,0,443.31,610.3Zm5-30.6h3.73v3.85h-3.73Zm6.59,0h3.73v3.85h-3.73Z" transform="translate(-13.29 -118.84)"/><path class="cls-2" d="M491.52,615.43v2.69h-20.4v-2.69h8.69V589h3v26.46Zm-15.39,7.35h3.74v3.85h-3.74Zm6.59,0h3.73v3.85h-3.73Z" transform="translate(-13.29 -118.84)"/><path class="cls-2" d="M525.92,615.43v2.69h-5.48a26.21,26.21,0,0,1-6-.73,23.84,23.84,0,0,1-5.53-2,26.65,26.65,0,0,1-5.34,2,23.85,23.85,0,0,1-5.92.76h-6.18v-2.69h6a21.9,21.9,0,0,0,8.51-1.75,24.75,24.75,0,0,1-5.74-5.77,29,29,0,0,1-3.59-6.58,19.49,19.49,0,0,1-1.34-5.54l-.17-3.73a37.45,37.45,0,0,1,7.28-2.83,26.81,26.81,0,0,1,12.92,0,38.49,38.49,0,0,1,7.37,2.83l-.17,3.73a18.64,18.64,0,0,1-1.35,5.54,29.72,29.72,0,0,1-3.58,6.53,24.13,24.13,0,0,1-5.74,5.71,20.17,20.17,0,0,0,8.45,1.86Zm-24.49-11.28a25.52,25.52,0,0,0,7.58,7.73,25.4,25.4,0,0,0,7.49-7.73,19.29,19.29,0,0,0,3.06-10.58,52.52,52.52,0,0,0-5.62-1.8,20,20,0,0,0-4.93-.65,19.45,19.45,0,0,0-4.92.65,58.19,58.19,0,0,0-5.63,1.8A19.33,19.33,0,0,0,501.43,604.15Z" transform="translate(-13.29 -118.84)"/><path class="cls-2" d="M565.27,615.43v2.69H564a7.5,7.5,0,0,1-2.54-.53,12.51,12.51,0,0,1-2.77-1.46v2H525.92v-2.69h9.85A73.51,73.51,0,0,1,535,604q0-4.32.37-8.19a46.91,46.91,0,0,1,.91-6,20.67,20.67,0,0,1,3.82-1,29.41,29.41,0,0,1,5.1-.44q6.47,0,10,3.39t3.53,11.77v9.91a11.59,11.59,0,0,0,2.33,1.43,7.21,7.21,0,0,0,3,.55Zm-26.9-5c.17,2.1.35,3.77.55,5h16.67V603.54q0-6.82-2.88-9.65t-8.25-2.82a23,23,0,0,0-5.42.64,75.49,75.49,0,0,0-.94,12.3Q538.1,607.26,538.37,610.42Z" transform="translate(-13.29 -118.84)"/><path class="cls-2" d="M589.58,590.54c1.82,1.44,2.74,4.1,2.74,8v19.59H565.27v-2.69h24V597.54a6.15,6.15,0,0,0-1.72-4.7,6.92,6.92,0,0,0-4.87-1.6,106.37,106.37,0,0,0-11.89,1.4l-.18-2.51,1.23-.23a75.36,75.36,0,0,1,11.36-1.52A10.08,10.08,0,0,1,589.58,590.54Zm-10.2,32.24h3.2v3.79h-3.2Z" transform="translate(-13.29 -118.84)"/></svg>