<?xml version="1.0" encoding="utf-8"?>
<!-- Generator: Adobe Illustrator 27.0.0, SVG Export Plug-In . SVG Version: 6.00 Build 0)  -->
<svg version="1.1" xmlns="http://www.w3.org/2000/svg" xmlns:xlink="http://www.w3.org/1999/xlink" x="0px" y="0px"
	 viewBox="0 0 601.2 100.2" style="enable-background:new 0 0 601.2 100.2;" xml:space="preserve">
<style type="text/css">
	.st0{fill:#EF3A39;}
	.st1{fill:#277BBF;}
	.st2{fill:#FDB515;}
	.st3{fill:#00A250;}
	.st4{fill:#646D75;}
	.st5{font-family:'GoogleSansDisplay-Regular';}
	.st6{font-size:35.149px;}
</style>
<g id="Layer_1">
	<g>
		<g>
			<path class="st0" d="M15.7,33.6l10.7-6.2c2.5-1.5,3.4-4.7,1.9-7.2c-1.5-2.5-4.7-3.4-7.2-1.9L2.6,29L15.7,33.6L15.7,33.6z"/>
			<path class="st1" d="M23.7,49.5c1.8,0,3.6-0.9,4.6-2.6c1.5-2.5,0.6-5.7-1.9-7.2L7.9,29c-2.5-1.5-5.7-0.6-7.2,1.9
				c-1.5,2.5-0.6,5.7,1.9,7.2l18.5,10.7C21.9,49.3,22.8,49.5,23.7,49.5z"/>
			<path class="st2" d="M42.1,49.5c0.9,0,1.8-0.2,2.6-0.7l18.5-10.7l-12.9-4.7l-10.9,6.3c-2.5,1.5-3.4,4.7-1.9,7.2
				C38.5,48.6,40.3,49.5,42.1,49.5z"/>
			<path class="st3" d="M60.6,38.9c1.8,0,3.6-0.9,4.6-2.6c1.5-2.5,0.6-5.7-1.9-7.2L44.7,18.4c-2.5-1.5-5.7-0.6-7.2,1.9
				c-1.5,2.5-0.6,5.7,1.9,7.2l18.5,10.7C58.8,38.6,59.7,38.8,60.6,38.9L60.6,38.9z"/>
		</g>
	</g>
</g>
<g id="Layer_2">
	<text id="Google_Developer_Students_Clubs_UH1" transform="matrix(1 0 0 1 73.5137 46.4682)"><tspan x="0" y="0" class="st4 st5 st6">Google Developer Students Clubs</tspan><tspan x="0" y="42.2" class="st4 st5 st6">ENSA SAFI</tspan></text>
</g>
</svg>
