<?xml version="1.0" encoding="UTF-8"?><svg id="wtm_settat" xmlns="http://www.w3.org/2000/svg" viewBox="0 0 655.93 143.22"><defs><style>.cls-1{font-size:56.5px;}.cls-2{letter-spacing:-.04em;}.cls-3{fill:#66c5ef;}.cls-4{fill:#65c4a9;}.cls-5{fill:#31bba5;}.cls-6{fill:#6289c6;}.cls-7{letter-spacing:0em;}.cls-8{font-size:35.31px;}.cls-9{letter-spacing:0em;}.cls-10{letter-spacing:0em;}.cls-11{fill:#797979;font-family:ProductSans-Regular, 'ProductSans Regular';}.cls-12{letter-spacing:0em;}.cls-13{letter-spacing:-.03em;}.cls-14{letter-spacing:-.07em;}.cls-15{letter-spacing:0em;}</style></defs><text class="cls-11" transform="translate(172.97 67.93) scale(.99 1)"><tspan class="cls-1"><tspan class="cls-13" x="0" y="0">W</tspan><tspan class="cls-12" x="45.93" y="0">omen</tspan><tspan class="cls-2" x="183.73" y="0"> </tspan><tspan class="cls-14" x="193.39" y="0">T</tspan><tspan class="cls-7" x="217.46" y="0">echmakers</tspan></tspan><tspan class="cls-8"><tspan class="cls-9" x="0" y="42.37">S</tspan><tspan x="17.62" y="42.37">ett</tspan><tspan class="cls-10" x="58.69" y="42.37">a</tspan><tspan class="cls-15" x="75.56" y="42.37">t</tspan></tspan></text><g><path class="cls-6" d="M23.09,69.71c0-15.3,0-30.6,0-45.89,0-.6,.04-1.2,.1-1.8,.2-1.73,.87-2.34,2.69-2.34,9.26-.01,18.52-.02,27.78,0,1.86,0,2.62,.75,2.63,2.52,.01,2.49,.02,4.98,0,7.47-.01,1.87-.73,2.51-2.73,2.51-4.57,0-9.13-.02-13.7-.01-.59,0-1.2,.03-1.78,.15-.99,.19-1.56,.78-1.58,1.77,0,.32,0,.64,0,.96,0,22.93,0,45.85,0,68.78,0,2.27,.51,2.76,2.91,2.76,4.69,0,9.39,0,14.08,0,2.08,0,2.79,.65,2.8,2.58,.01,2.53,.01,5.06,0,7.59,0,1.71-.74,2.39-2.58,2.39-9.39,0-18.77,0-28.16-.02-1.51,0-2.15-.52-2.38-1.95-.08-.51-.09-1.04-.09-1.56,0-15.3,0-30.6,0-45.89Z"/><path class="cls-5" d="M149.04,69.34c0,15.54,0,31.07,0,46.61,0,.48,.02,.97-.1,1.43-.42,1.57-.72,1.77-2.48,1.77-9.26,0-18.51,0-27.77-.02-2.03,0-2.68-.62-2.68-2.52,0-2.45,0-4.9,0-7.35,0-1.93,.8-2.66,2.89-2.66,4.74,0,9.47,0,14.21,0,1.99,0,2.63-.58,2.63-2.41,0-23.16,0-46.33,0-69.49,0-1.71-.72-2.37-2.59-2.38-4.78-.01-9.56,0-14.33,0-2.02,0-2.81-.72-2.81-2.59,0-2.53,0-5.06,0-7.59,0-1.67,.79-2.47,2.56-2.47,9.34-.02,18.68-.02,28.03,0,1.44,0,2.35,.87,2.45,2.23,.04,.52,0,1.04,0,1.57,0,15.3,0,30.59,0,45.89Z"/><path class="cls-3" d="M69.92,67.99c.59-.09,.78-.6,1.05-.97,2-2.64,3.98-5.3,5.92-7.98,1.01-1.4,2.25-2.16,4.14-2.12,3.92,.09,7.85,.02,11.77,.03,1.96,0,3.04,.76,3.7,2.53,.05,1.03-.27,1.94-.89,2.81-2.72,3.85-5.39,7.73-8.08,11.6-.39,.56-.91,1.08-.83,1.83-.57,.13-.74,.63-1.01,1.02-5.04,7.13-10.1,14.25-15.07,21.42-1.2,1.72-2.63,2.52-4.85,2.44-3.66-.13-7.33-.15-10.98,0-3.72,.15-5.27-1.63-4.45-5.53,.5-.03,.69-.39,.93-.73,.83-1.2,1.68-2.39,2.54-3.58,5.1-7.01,10.22-14.01,15.31-21.04,.36-.5,.76-1.06,.8-1.73Z"/><path class="cls-5" d="M102.8,67.41c-.32-1.8-.03-3.6,.04-5.4,.55-.54,.3-1.22,.26-1.82-.1-1.4,.38-2.84-.26-4.22,0-.24,0-.47,0-.71,.36-.23,.37-.47,.03-.73,0-4.29,0-8.59,.03-12.88,.02-2.07,1.32-3.29,3.52-3.31,4.31-.02,8.61-.03,12.92,0,2.01,.01,3.3,1.2,3.3,3.1,.02,17.66,.01,35.32,.01,52.97,0,.12-.04,.24-.07,.35-.69,.44-.89-.17-1.15-.52-2.63-3.51-5.04-7.16-7.69-10.67-3.39-4.49-6.55-9.12-9.8-13.7-.54-.75-1.16-1.49-1.16-2.47Z"/><path class="cls-6" d="M69.92,67.99c-.04,.67-.43,1.23-.8,1.73-5.08,7.03-10.2,14.03-15.31,21.04-.86,1.18-1.71,2.38-2.54,3.58-.24,.34-.43,.7-.93,.73-.01-14.29-.02-28.58-.03-42.86,0-3.49,0-6.98,0-10.48,0-2.23,1.17-3.33,3.52-3.34,4.18,0,8.36,0,12.54,0,2.34,0,3.52,1.12,3.52,3.35,.01,8.15,.01,16.3,.01,24.44,0,.6,0,1.2,.01,1.81Z"/><path class="cls-4" d="M102.8,67.41c0,.99,.62,1.72,1.16,2.47,3.25,4.58,6.41,9.21,9.8,13.7,2.65,3.51,5.06,7.16,7.69,10.67,.26,.35,.45,.96,1.15,.52,.41,1.3,.35,2.63-.11,3.88-.46,1.24-1.54,1.93-2.96,1.93-4.47,.02-8.95,0-13.42,0-1.15,0-2.05-.49-2.68-1.39-5.57-7.82-11.14-15.64-16.71-23.46-.08-.75,.44-1.27,.83-1.83,2.69-3.87,5.36-7.75,8.08-11.6,.62-.88,.93-1.78,.89-2.81,1.97,2.17,3.41,4.68,5.18,6.98,.28,.37,.34,1.08,1.12,.95Z"/><path class="cls-4" d="M102.84,55.97c.64,1.37,.16,2.81,.26,4.22,.04,.6,.28,1.28-.26,1.82-.26-2.01-.26-4.02,0-6.04Z"/><path class="cls-4" d="M102.87,54.53c.34,.25,.33,.5-.03,.73-.21-.25-.22-.49,.03-.73Z"/></g><text/></svg>