<?xml version="1.0" encoding="UTF-8"?><svg id="gdgsettat" xmlns="http://www.w3.org/2000/svg" viewBox="0 0 655.93 143.22"><defs><style>.cls-1{fill:#00a250;}.cls-2{fill:#ef3a39;}.cls-3{fill:#fdb515;}.cls-4{fill:#646d75;}.cls-5{fill:#277bbf;}.cls-6{fill:#6d6e71;font-family:GoogleSansDisplay-Regular, 'Google Sans Display';font-size:38.14px;}.cls-7{letter-spacing:-.02em;}.cls-8{letter-spacing:0em;}</style></defs><g><g><path class="cls-4" d="M141.86,64.32c-2.49-1.43-4.45-3.39-5.89-5.89-1.44-2.5-2.16-5.27-2.16-8.29s.72-5.79,2.16-8.3c1.44-2.5,3.41-4.47,5.89-5.89,2.49-1.43,5.2-2.14,8.14-2.14,2.3,0,4.46,.41,6.48,1.22,2.02,.81,3.69,1.96,5,3.45l-2.66,2.66c-.99-1.22-2.26-2.16-3.82-2.82-1.56-.66-3.22-.98-5-.98-2.18,0-4.23,.53-6.13,1.59-1.91,1.06-3.44,2.56-4.58,4.5-1.15,1.93-1.72,4.17-1.72,6.7s.57,4.77,1.72,6.7c1.15,1.94,2.68,3.44,4.58,4.5,1.91,1.06,3.95,1.59,6.13,1.59s3.85-.33,5.26-.98c1.41-.66,2.64-1.52,3.69-2.6,.76-.81,1.37-1.8,1.83-2.97,.47-1.16,.74-2.43,.83-3.8h-11.52v-3.45h15.02c.15,.81,.22,1.57,.22,2.27,0,1.92-.31,3.79-.92,5.61-.61,1.82-1.59,3.41-2.92,4.78-2.94,3.11-6.77,4.67-11.48,4.67-2.94,0-5.65-.71-8.14-2.14Z"/><path class="cls-4" d="M173.49,64.95c-1.69-1.01-3.01-2.39-3.95-4.15-.95-1.76-1.42-3.72-1.42-5.87s.47-4.11,1.42-5.87c.95-1.76,2.26-3.14,3.95-4.15,1.69-1,3.59-1.51,5.72-1.51s4.04,.5,5.74,1.51c1.7,1.01,3.03,2.39,3.97,4.15,.95,1.76,1.42,3.72,1.42,5.87s-.47,4.11-1.42,5.87c-.95,1.76-2.27,3.14-3.97,4.15-1.7,1-3.62,1.51-5.74,1.51s-4.03-.5-5.72-1.51Zm9.39-2.86c1.13-.67,2.04-1.62,2.73-2.86,.68-1.24,1.03-2.67,1.03-4.3s-.34-3.06-1.03-4.3c-.68-1.24-1.59-2.19-2.73-2.86-1.13-.67-2.36-1-3.67-1s-2.49,.34-3.62,1c-1.14,.67-2.05,1.62-2.73,2.86-.68,1.24-1.03,2.67-1.03,4.3s.34,3.06,1.03,4.3c.68,1.24,1.59,2.19,2.73,2.86,1.13,.67,2.34,1,3.62,1s2.53-.33,3.67-1Z"/><path class="cls-4" d="M198.24,64.95c-1.69-1.01-3.01-2.39-3.95-4.15-.95-1.76-1.42-3.72-1.42-5.87s.47-4.11,1.42-5.87c.95-1.76,2.26-3.14,3.95-4.15,1.69-1,3.59-1.51,5.72-1.51s4.04,.5,5.74,1.51c1.7,1.01,3.03,2.39,3.97,4.15,.95,1.76,1.42,3.72,1.42,5.87s-.47,4.11-1.42,5.87c-.95,1.76-2.27,3.14-3.97,4.15-1.7,1-3.62,1.51-5.74,1.51s-4.03-.5-5.72-1.51Zm9.39-2.86c1.13-.67,2.04-1.62,2.73-2.86,.68-1.24,1.03-2.67,1.03-4.3s-.34-3.06-1.03-4.3c-.68-1.24-1.59-2.19-2.73-2.86-1.13-.67-2.36-1-3.67-1s-2.49,.34-3.62,1c-1.14,.67-2.05,1.62-2.73,2.86-.68,1.24-1.03,2.67-1.03,4.3s.34,3.06,1.03,4.3c.68,1.24,1.59,2.19,2.73,2.86,1.13,.67,2.34,1,3.62,1s2.53-.33,3.67-1Z"/><path class="cls-4" d="M221.95,74.01c-1.66-1.25-2.78-2.71-3.36-4.37l3.45-1.44c.44,1.28,1.22,2.32,2.34,3.12,1.12,.8,2.45,1.2,3.99,1.2,2.3,0,4.07-.67,5.3-2,1.24-1.33,1.85-3.2,1.85-5.59v-2.31h-.17c-.7,1.11-1.7,2.02-3.01,2.75-1.31,.73-2.79,1.09-4.45,1.09-1.83,0-3.54-.5-5.11-1.49-1.57-.99-2.82-2.37-3.75-4.12-.93-1.75-1.4-3.72-1.4-5.91s.46-4.16,1.4-5.92c.93-1.75,2.18-3.13,3.75-4.12,1.57-.99,3.27-1.49,5.11-1.49,1.66,0,3.14,.36,4.45,1.09,1.31,.73,2.31,1.65,3.01,2.75h.17v-3.14h3.54v20.78c0,2.39-.47,4.41-1.4,6.07-.93,1.66-2.2,2.9-3.82,3.71-1.62,.81-3.44,1.22-5.48,1.22-2.62,0-4.76-.63-6.42-1.88Zm10.04-11.9c1.08-.66,1.94-1.6,2.6-2.83,.65-1.23,.98-2.68,.98-4.34s-.33-3.12-.98-4.37c-.65-1.24-1.52-2.19-2.6-2.83-1.08-.64-2.26-.96-3.54-.96s-2.46,.33-3.54,.99c-1.08,.66-1.94,1.6-2.6,2.83-.66,1.23-.98,2.68-.98,4.35s.33,3.12,.98,4.34c.65,1.23,1.52,2.17,2.6,2.83,1.08,.66,2.25,.99,3.54,.99s2.46-.33,3.54-.99Z"/><path class="cls-4" d="M243.51,34.5h3.71v31.26h-3.71v-31.26Z"/><path class="cls-4" d="M255.89,64.97c-1.64-.99-2.93-2.36-3.86-4.1-.93-1.75-1.4-3.72-1.4-5.94,0-2.1,.44-4.02,1.31-5.79,.87-1.76,2.12-3.16,3.73-4.19s3.47-1.55,5.57-1.55,3.94,.47,5.52,1.42c1.59,.95,2.8,2.28,3.65,4,.84,1.72,1.27,3.7,1.27,5.94,0,.41-.03,.7-.09,.87h-17.2c.06,1.63,.45,3,1.18,4.12,.73,1.12,1.64,1.96,2.73,2.51,1.09,.55,2.22,.83,3.38,.83,2.74,0,4.85-1.34,6.33-4.02l3.27,1.57c-.93,1.75-2.22,3.15-3.86,4.21-1.64,1.06-3.62,1.59-5.91,1.59-2.1,0-3.97-.49-5.61-1.48Zm11.85-12.44c-.06-.87-.31-1.75-.74-2.62-.44-.87-1.14-1.62-2.12-2.23-.98-.61-2.22-.92-3.73-.92-1.63,0-3.04,.52-4.23,1.57-1.19,1.05-1.95,2.44-2.27,4.19h13.1Z"/><path class="cls-4" d="M285.86,34.5h9.47c3.2,0,6,.66,8.38,1.99,2.39,1.33,4.22,3.17,5.5,5.52,1.28,2.36,1.92,5.07,1.92,8.12s-.64,5.76-1.92,8.12c-1.28,2.36-3.11,4.2-5.5,5.52-2.39,1.33-5.18,1.99-8.38,1.99h-9.47v-31.26Zm9.47,27.72c3.7,0,6.62-1.06,8.77-3.19,2.15-2.12,3.23-5.09,3.23-8.9s-1.08-6.78-3.23-8.91c-2.15-2.13-5.08-3.19-8.77-3.19h-5.76v24.19h5.76Z"/><path class="cls-4" d="M319.54,64.97c-1.64-.99-2.93-2.36-3.86-4.1-.93-1.75-1.4-3.72-1.4-5.94,0-2.1,.44-4.02,1.31-5.79,.87-1.76,2.12-3.16,3.73-4.19,1.62-1.03,3.47-1.55,5.57-1.55s3.94,.47,5.52,1.42c1.59,.95,2.8,2.28,3.65,4,.84,1.72,1.27,3.7,1.27,5.94,0,.41-.03,.7-.09,.87h-17.2c.06,1.63,.45,3,1.18,4.12,.73,1.12,1.64,1.96,2.73,2.51,1.09,.55,2.22,.83,3.38,.83,2.74,0,4.85-1.34,6.33-4.02l3.27,1.57c-.93,1.75-2.22,3.15-3.86,4.21-1.64,1.06-3.62,1.59-5.91,1.59-2.1,0-3.97-.49-5.61-1.48Zm11.85-12.44c-.06-.87-.31-1.75-.74-2.62-.44-.87-1.14-1.62-2.12-2.23-.98-.61-2.22-.92-3.73-.92-1.63,0-3.04,.52-4.23,1.57-1.19,1.05-1.95,2.44-2.27,4.19h13.1Z"/><path class="cls-4" d="M336.2,44.11h4.02l6.64,17.29h.09l6.72-17.29h3.93l-8.86,21.65h-3.75l-8.77-21.65Z"/><path class="cls-4" d="M364.38,64.97c-1.64-.99-2.93-2.36-3.86-4.1-.93-1.75-1.4-3.72-1.4-5.94,0-2.1,.44-4.02,1.31-5.79,.87-1.76,2.12-3.16,3.73-4.19s3.47-1.55,5.57-1.55,3.94,.47,5.52,1.42c1.59,.95,2.8,2.28,3.65,4,.84,1.72,1.27,3.7,1.27,5.94,0,.41-.03,.7-.09,.87h-17.2c.06,1.63,.45,3,1.18,4.12,.73,1.12,1.64,1.96,2.73,2.51,1.09,.55,2.22,.83,3.38,.83,2.74,0,4.85-1.34,6.33-4.02l3.27,1.57c-.93,1.75-2.22,3.15-3.86,4.21-1.64,1.06-3.62,1.59-5.91,1.59-2.1,0-3.97-.49-5.61-1.48Zm11.85-12.44c-.06-.87-.31-1.75-.74-2.62-.44-.87-1.14-1.62-2.12-2.23-.98-.61-2.22-.92-3.73-.92-1.63,0-3.04,.52-4.23,1.57-1.19,1.05-1.95,2.44-2.27,4.19h13.1Z"/><path class="cls-4" d="M383.91,34.5h3.71v31.26h-3.71v-31.26Z"/><path class="cls-4" d="M396.53,64.95c-1.69-1.01-3.01-2.39-3.95-4.15-.95-1.76-1.42-3.72-1.42-5.87s.47-4.11,1.42-5.87c.95-1.76,2.26-3.14,3.95-4.15,1.69-1,3.59-1.51,5.72-1.51s4.04,.5,5.74,1.51c1.7,1.01,3.03,2.39,3.97,4.15,.95,1.76,1.42,3.72,1.42,5.87s-.47,4.11-1.42,5.87c-.95,1.76-2.27,3.14-3.97,4.15-1.7,1-3.62,1.51-5.74,1.51s-4.03-.5-5.72-1.51Zm9.39-2.86c1.13-.67,2.04-1.62,2.73-2.86,.68-1.24,1.03-2.67,1.03-4.3s-.34-3.06-1.03-4.3c-.68-1.24-1.59-2.19-2.73-2.86-1.13-.67-2.36-1-3.67-1s-2.49,.34-3.62,1c-1.14,.67-2.05,1.62-2.73,2.86-.68,1.24-1.03,2.67-1.03,4.3s.34,3.06,1.03,4.3c.68,1.24,1.59,2.19,2.73,2.86,1.13,.67,2.34,1,3.62,1s2.53-.33,3.67-1Z"/><path class="cls-4" d="M416.74,44.11h3.54v3.19h.17c.7-1.11,1.7-2.03,3.01-2.77s2.82-1.11,4.54-1.11c1.86,0,3.58,.5,5.15,1.51,1.57,1.01,2.82,2.38,3.76,4.13,.93,1.75,1.4,3.71,1.4,5.89s-.47,4.15-1.4,5.89c-.93,1.75-2.18,3.12-3.76,4.13-1.57,1-3.29,1.51-5.15,1.51-1.72,0-3.24-.37-4.56-1.11-1.32-.74-2.32-1.68-2.99-2.82h-.17l.17,3.01v9.65h-3.71v-31.08Zm14.25,17.99c1.09-.67,1.96-1.62,2.62-2.86,.65-1.24,.98-2.67,.98-4.3s-.33-3.06-.98-4.3c-.66-1.24-1.53-2.19-2.62-2.86-1.09-.67-2.28-1-3.56-1s-2.47,.33-3.56,.98c-1.09,.66-1.96,1.6-2.62,2.84-.65,1.24-.98,2.68-.98,4.34s.33,3.07,.98,4.32c.66,1.25,1.53,2.2,2.62,2.86,1.09,.66,2.28,.98,3.56,.98s2.47-.33,3.56-1Z"/><path class="cls-4" d="M446.98,64.97c-1.64-.99-2.93-2.36-3.86-4.1-.93-1.75-1.4-3.72-1.4-5.94,0-2.1,.44-4.02,1.31-5.79,.87-1.76,2.12-3.16,3.73-4.19,1.62-1.03,3.47-1.55,5.57-1.55s3.94,.47,5.52,1.42c1.59,.95,2.8,2.28,3.65,4,.84,1.72,1.27,3.7,1.27,5.94,0,.41-.03,.7-.09,.87h-17.2c.06,1.63,.45,3,1.18,4.12,.73,1.12,1.64,1.96,2.73,2.51,1.09,.55,2.22,.83,3.38,.83,2.74,0,4.85-1.34,6.33-4.02l3.27,1.57c-.93,1.75-2.22,3.15-3.86,4.21-1.64,1.06-3.62,1.59-5.91,1.59-2.1,0-3.97-.49-5.61-1.48Zm11.85-12.44c-.06-.87-.31-1.75-.74-2.62-.44-.87-1.14-1.62-2.12-2.23-.98-.61-2.22-.92-3.73-.92-1.63,0-3.04,.52-4.23,1.57-1.19,1.05-1.95,2.44-2.27,4.19h13.1Z"/><path class="cls-4" d="M466.51,44.11h3.54v3.54h.17c.41-1.19,1.24-2.2,2.51-3.01,1.27-.81,2.53-1.22,3.78-1.22,.9,0,1.75,.15,2.53,.44v3.97c-.79-.44-1.8-.66-3.06-.66-1.02,0-1.97,.3-2.86,.9-.89,.6-1.59,1.39-2.12,2.39-.52,.99-.79,2.07-.79,3.24v12.08h-3.71v-21.65Z"/><path class="cls-4" d="M498.14,64.32c-2.49-1.43-4.45-3.39-5.89-5.89-1.44-2.5-2.16-5.27-2.16-8.29s.72-5.79,2.16-8.3c1.44-2.5,3.41-4.47,5.89-5.89,2.49-1.43,5.2-2.14,8.14-2.14,2.3,0,4.46,.41,6.48,1.22,2.02,.81,3.69,1.96,5,3.45l-2.66,2.66c-.99-1.22-2.26-2.16-3.82-2.82-1.56-.66-3.22-.98-5-.98-2.18,0-4.23,.53-6.13,1.59-1.91,1.06-3.44,2.56-4.58,4.5-1.15,1.93-1.72,4.17-1.72,6.7s.57,4.77,1.72,6.7c1.15,1.94,2.68,3.44,4.58,4.5,1.91,1.06,3.95,1.59,6.13,1.59s3.85-.33,5.26-.98c1.41-.66,2.64-1.52,3.69-2.6,.76-.81,1.37-1.8,1.83-2.97s.74-2.43,.83-3.8h-11.52v-3.45h15.02c.15,.81,.22,1.57,.22,2.27,0,1.92-.31,3.79-.92,5.61-.61,1.82-1.59,3.41-2.92,4.78-2.94,3.11-6.77,4.67-11.48,4.67-2.94,0-5.65-.71-8.14-2.14Z"/><path class="cls-4" d="M525.84,44.11h3.54v3.54h.17c.41-1.19,1.24-2.2,2.51-3.01,1.27-.81,2.53-1.22,3.78-1.22,.9,0,1.75,.15,2.53,.44v3.97c-.79-.44-1.8-.66-3.06-.66-1.02,0-1.97,.3-2.86,.9-.89,.6-1.59,1.39-2.12,2.39-.52,.99-.79,2.07-.79,3.24v12.08h-3.71v-21.65Z"/><path class="cls-4" d="M544.22,64.95c-1.69-1.01-3.01-2.39-3.95-4.15-.95-1.76-1.42-3.72-1.42-5.87s.47-4.11,1.42-5.87c.95-1.76,2.26-3.14,3.95-4.15,1.69-1,3.59-1.51,5.72-1.51s4.04,.5,5.74,1.51c1.7,1.01,3.03,2.39,3.97,4.15,.95,1.76,1.42,3.72,1.42,5.87s-.47,4.11-1.42,5.87c-.95,1.76-2.27,3.14-3.97,4.15-1.7,1-3.62,1.51-5.74,1.51s-4.03-.5-5.72-1.51Zm9.39-2.86c1.13-.67,2.04-1.62,2.73-2.86,.68-1.24,1.03-2.67,1.03-4.3s-.34-3.06-1.03-4.3c-.68-1.24-1.59-2.19-2.73-2.86-1.13-.67-2.36-1-3.67-1s-2.49,.34-3.62,1c-1.14,.67-2.05,1.62-2.73,2.86-.68,1.24-1.03,2.67-1.03,4.3s.34,3.06,1.03,4.3c.68,1.24,1.59,2.19,2.73,2.86,1.13,.67,2.34,1,3.62,1s2.53-.33,3.67-1Z"/><path class="cls-4" d="M566.51,64.14c-1.38-1.54-2.07-3.68-2.07-6.42v-13.62h3.71v13.01c0,3.99,1.79,5.98,5.37,5.98,1.19,0,2.26-.33,3.21-1,.95-.67,1.67-1.54,2.18-2.62,.51-1.08,.76-2.21,.76-3.4v-11.96h3.67v21.65h-3.49v-3.23h-.17c-.64,1.11-1.61,2.04-2.9,2.79-1.3,.76-2.69,1.13-4.17,1.13-2.68,0-4.71-.77-6.09-2.31Z"/><path class="cls-4" d="M588.18,44.11h3.54v3.19h.17c.7-1.11,1.7-2.03,3.01-2.77,1.31-.74,2.82-1.11,4.54-1.11,1.86,0,3.58,.5,5.15,1.51,1.57,1.01,2.82,2.38,3.76,4.13,.93,1.75,1.4,3.71,1.4,5.89s-.47,4.15-1.4,5.89c-.93,1.75-2.18,3.12-3.76,4.13-1.57,1-3.29,1.51-5.15,1.51-1.72,0-3.24-.37-4.56-1.11-1.32-.74-2.32-1.68-2.99-2.82h-.17l.17,3.01v9.65h-3.71v-31.08Zm14.25,17.99c1.09-.67,1.96-1.62,2.62-2.86,.65-1.24,.98-2.67,.98-4.3s-.33-3.06-.98-4.3c-.66-1.24-1.53-2.19-2.62-2.86-1.09-.67-2.28-1-3.56-1s-2.47,.33-3.56,.98c-1.09,.66-1.96,1.6-2.62,2.84-.65,1.24-.98,2.68-.98,4.34s.33,3.07,.98,4.32c.66,1.25,1.53,2.2,2.62,2.86,1.09,.66,2.28,.98,3.56,.98s2.47-.33,3.56-1Z"/><path class="cls-4" d="M615.07,64.71c-1.6-1.16-2.72-2.6-3.36-4.32l3.27-1.44c.58,1.37,1.4,2.42,2.47,3.14,1.06,.73,2.22,1.09,3.47,1.09,1.4,0,2.55-.31,3.47-.92,.92-.61,1.37-1.35,1.37-2.23s-.34-1.54-1.03-2.1c-.68-.55-1.86-1.03-3.51-1.44l-2.97-.74c-1.63-.38-3.02-1.06-4.17-2.05-1.15-.99-1.72-2.3-1.72-3.93,0-1.34,.39-2.49,1.16-3.45,.77-.96,1.8-1.69,3.08-2.18,1.28-.49,2.68-.74,4.19-.74,1.86,0,3.56,.43,5.09,1.29,1.53,.86,2.61,2.07,3.25,3.65l-3.27,1.4c-.47-1.05-1.17-1.82-2.12-2.31-.95-.49-2-.74-3.16-.74s-2.16,.28-3.08,.83c-.92,.55-1.38,1.26-1.38,2.14,0,.76,.3,1.35,.9,1.79,.6,.44,1.55,.83,2.86,1.18l3.23,.78c2.15,.55,3.76,1.38,4.82,2.47,1.06,1.09,1.59,2.39,1.59,3.91,0,1.25-.36,2.39-1.09,3.41s-1.75,1.82-3.06,2.4c-1.31,.58-2.79,.87-4.45,.87-2.3,0-4.25-.58-5.85-1.75Z"/></g><g><path class="cls-2" d="M48.8,50.6l13.99-8.08c3.29-1.9,4.42-6.11,2.52-9.41-1.9-3.29-6.11-4.42-9.41-2.52l-24.18,13.96,17.07,6.04Z"/><path class="cls-5" d="M59.35,71.37c2.38,0,4.69-1.24,5.97-3.44,1.9-3.29,.77-7.5-2.52-9.41l-24.18-13.96c-3.29-1.9-7.5-.77-9.41,2.52-1.9,3.29-.77,7.5,2.52,9.41l24.18,13.96c1.08,.63,2.27,.92,3.44,.92Z"/><path class="cls-3" d="M83.4,71.37c1.17,0,2.35-.3,3.44-.92l24.18-13.96-16.86-6.17-14.21,8.2c-3.29,1.9-4.42,6.11-2.52,9.41,1.28,2.21,3.59,3.44,5.97,3.44Z"/><path class="cls-1" d="M107.57,57.41c2.38,0,4.69-1.23,5.97-3.44,1.9-3.29,.77-7.5-2.52-9.41l-24.18-13.96c-3.29-1.9-7.5-.77-9.41,2.52-1.9,3.29-.77,7.5,2.52,9.41l24.18,13.96c1.08,.63,2.27,.92,3.44,.92Z"/></g></g><text class="cls-6" transform="translate(133.22 103.97)"><tspan x="0" y="0">S</tspan><tspan class="cls-7" x="21.32" y="0">e</tspan><tspan class="cls-8" x="41.73" y="0">tta</tspan><tspan x="86.55" y="0">t</tspan></text></svg>